<?xml version="1.0" encoding="utf-8"?>
<!-- Generator: Adobe Illustrator 19.2.1, SVG Export Plug-In . SVG Version: 6.00 Build 0)  -->
<svg version="1.1" id="layer" xmlns="http://www.w3.org/2000/svg" xmlns:xlink="http://www.w3.org/1999/xlink" x="0px" y="0px"
	 viewBox="0 0 652 652" style="enable-background:new 0 0 652 652;" xml:space="preserve">
<style type="text/css">
	.st0{fill:#408800;}
</style>
<g>
	<polygon class="st0" points="54.7,367.3 15.1,367.3 46.9,254 128.1,254 120.4,280.9 78.9,280.9 73.6,300.2 115,300.2 108.1,324.9 
		66.6,324.9 	"/>
	<path class="st0" d="M146.5,367.3h-39.2l23.2-82.8h39.2L146.5,367.3z M171.8,276.6h-39.2L139,254h39.2L171.8,276.6z"/>
	<path class="st0" d="M248.1,367.3h-38.4l2.7-9.3c-7.7,6.5-15.6,11.2-28.2,11.2c-12.8,0-20.8-6.1-20.8-19c0-14.3,5.6-35.5,14-50.4
		c6.1-11.1,17-16.9,29.9-16.9c11.1,0,19.3,4.9,22.5,10.9l10.9-39.9h39.2L248.1,367.3z M218.7,309.1c-3.5,0-7,1.1-9,5.9
		c-2.9,7-5.5,13.8-5.5,20.7c0,3.2,2.3,5.9,6.1,5.9c3,0,5-0.9,6.7-2l7.9-27.2C223.5,310.5,221.1,309.1,218.7,309.1"/>
	<path class="st0" d="M358.8,331.2h-54.1c-1.1,4.4-2.1,7.4-2.1,10.9c0,1.7,0.3,5.9,5.8,5.9c5.5,0,7.9-2.1,10.2-10.2H357
		c-4.9,23.5-32.8,31.6-50,31.6c-23.2,0-41.3-3.3-41.3-25.7c0-12.3,6.2-32.7,14.4-43.4c9.9-12.9,27-17.8,42.8-17.8
		c24.3,0,40.1,5,40.1,25.7C363,313.2,360.9,324.3,358.8,331.2 M319.6,303.4c-4.9,0-8.2,3.3-10.3,11.7h16.1c0.5-1.7,1.1-4.3,1.1-5.8
		C326.4,304.7,323.7,303.4,319.6,303.4"/>
	<polygon class="st0" points="398.2,367.3 359,367.3 390.7,254 429.9,254 	"/>
	<path class="st0" d="M449.9,367.3h-39.2l23.2-82.8h39.2L449.9,367.3z M475.3,276.6h-39.2l6.4-22.6h39.2L475.3,276.6z"/>
	<path class="st0" d="M545.7,284.5l3.4,18.7h-30l-8.8,31.4c-0.8,2.4-1.4,5.5-1.4,7.4c0,3.6,1.5,4.9,6.8,4.9h8.4l-5.8,20.4h-34.9
		c-11.5,0-15.9-5.6-15.9-14.1c0-3.5,0.5-7.3,1.7-11.5l21.3-75.5h39.2l-5.2,18.4H545.7z"/>
	<path class="st0" d="M608.4,350.7c-5.9,0-10.7,4.8-10.7,10.7c0,5.9,4.8,10.7,10.7,10.7c5.9,0,10.7-4.8,10.7-10.7
		C619.1,355.4,614.3,350.7,608.4,350.7 M608.4,370.1c-4.8,0-8.8-3.9-8.8-8.8s3.9-8.8,8.8-8.8c4.8,0,8.8,3.9,8.8,8.8
		S613.3,370.1,608.4,370.1"/>
	<path class="st0" d="M612.7,359.1c0-2.1-1.2-3.3-3.9-3.3h-4.1v11h1.9v-4.5h1.5l2.7,4.5h2.1l-2.9-4.6
		C611.6,361.9,612.7,361,612.7,359.1 M606.6,360.6v-3.1h1.5c1.2,0,2.6,0.1,2.6,1.5c0,1.5-1.4,1.6-2.6,1.6H606.6z"/>
	<path class="st0" d="M598.6,284.5l-21.3,45.9l0.6-45.9h-39.6l7.6,82.8c-1,4.8-2.6,7.6-5.6,8.9c-3.3,1.5-10.8,1.2-13.5,1.1l-0.5,0
		l-6.3,22.5l26.8,0c15.8,0,23.5-7.9,34.8-25.6l57.1-89.8H598.6z"/>
</g>
</svg>
